<svg width="25" height="24" viewBox="0 0 25 24" fill="none" xmlns="http://www.w3.org/2000/svg">
<g id="record_voice_over_24dp_E8EAED_FILL0_wght400_GRAD0_opsz24 1">
<path id="Vector" d="M20.45 15.95L18.9 14.4C19.6333 13.7167 20.2083 12.9084 20.625 11.975C21.0417 11.0417 21.25 10.05 21.25 9.00005C21.25 7.95005 21.0417 6.96672 20.625 6.05005C20.2083 5.13338 19.6333 4.33338 18.9 3.65005L20.45 2.05005C21.3833 2.93338 22.125 3.97505 22.675 5.17505C23.225 6.37505 23.5 7.65005 23.5 9.00005C23.5 10.35 23.225 11.625 22.675 12.825C22.125 14.025 21.3833 15.0667 20.45 15.95ZM17.25 12.75L15.65 11.15C15.95 10.8667 16.1917 10.5459 16.375 10.1875C16.5583 9.82922 16.65 9.43338 16.65 9.00005C16.65 8.56672 16.5583 8.17088 16.375 7.81255C16.1917 7.45422 15.95 7.13338 15.65 6.85005L17.25 5.25005C17.7833 5.73338 18.2 6.29588 18.5 6.93755C18.8 7.57922 18.95 8.26672 18.95 9.00005C18.95 9.73338 18.8 10.4209 18.5 11.0625C18.2 11.7042 17.7833 12.2667 17.25 12.75ZM9.5 13C8.4 13 7.45833 12.6084 6.675 11.825C5.89167 11.0417 5.5 10.1 5.5 9.00005C5.5 7.90005 5.89167 6.95838 6.675 6.17505C7.45833 5.39172 8.4 5.00005 9.5 5.00005C10.6 5.00005 11.5417 5.39172 12.325 6.17505C13.1083 6.95838 13.5 7.90005 13.5 9.00005C13.5 10.1 13.1083 11.0417 12.325 11.825C11.5417 12.6084 10.6 13 9.5 13ZM1.5 21V18.2C1.5 17.65 1.64167 17.1334 1.925 16.65C2.20833 16.1667 2.6 15.8 3.1 15.55C3.95 15.1167 4.90833 14.75 5.975 14.45C7.04167 14.15 8.21667 14 9.5 14C10.7833 14 11.9583 14.15 13.025 14.45C14.0917 14.75 15.05 15.1167 15.9 15.55C16.4 15.8 16.7917 16.1667 17.075 16.65C17.3583 17.1334 17.5 17.65 17.5 18.2V21H1.5ZM3.5 19H15.5V18.2C15.5 18.0167 15.4542 17.85 15.3625 17.7C15.2708 17.55 15.15 17.4334 15 17.35C14.4 17.05 13.6292 16.75 12.6875 16.45C11.7458 16.15 10.6833 16 9.5 16C8.31667 16 7.25417 16.15 6.3125 16.45C5.37083 16.75 4.6 17.05 4 17.35C3.85 17.4334 3.72917 17.55 3.6375 17.7C3.54583 17.85 3.5 18.0167 3.5 18.2V19ZM9.5 11C10.05 11 10.5208 10.8042 10.9125 10.4125C11.3042 10.0209 11.5 9.55005 11.5 9.00005C11.5 8.45005 11.3042 7.97922 10.9125 7.58755C10.5208 7.19588 10.05 7.00005 9.5 7.00005C8.95 7.00005 8.47917 7.19588 8.0875 7.58755C7.69583 7.97922 7.5 8.45005 7.5 9.00005C7.5 9.55005 7.69583 10.0209 8.0875 10.4125C8.47917 10.8042 8.95 11 9.5 11Z" fill="#878787"/>
</g>
</svg>
